<svg width="57" height="101" viewBox="0 0 57 101" fill="none" xmlns="http://www.w3.org/2000/svg">
<path fill-rule="evenodd" clip-rule="evenodd" d="M12.1572 24.5526C13.7302 17.0499 20.5465 11.6169 28.6737 11.6169C36.8009 11.6169 43.3551 17.3086 45.1903 24.5526H56.4635C54.6283 11.0995 42.8308 0.492188 28.6737 0.492188C14.5166 0.492188 2.71897 10.8407 0.883789 24.5526H12.1572ZM28.6741 35.9362C36.277 37.4885 41.7825 44.2152 41.7825 52.2353C41.7825 60.2555 36.0148 66.7233 28.6741 68.5343V79.659C42.3069 77.848 53.0557 66.2059 53.0557 52.2353C53.0557 38.2647 42.569 26.6226 28.6741 24.8116V35.9362ZM12.1572 73.1913C12.1572 81.2114 17.6627 87.938 25.2656 89.4903V100.615C11.3707 98.804 0.883789 87.1619 0.883789 73.1913C0.883789 59.2207 11.6328 47.5786 25.2656 45.7676V56.8923C17.9249 58.7033 12.1572 65.1711 12.1572 73.1913Z" fill="#151414"/>
<path fill-rule="evenodd" clip-rule="evenodd" d="M12.1572 24.5526C13.7302 17.0499 20.5465 11.6169 28.6737 11.6169C36.8009 11.6169 43.3551 17.3086 45.1903 24.5526H56.4635C54.6283 11.0995 42.8308 0.492188 28.6737 0.492188C14.5166 0.492188 2.71897 10.8407 0.883789 24.5526H12.1572ZM28.6741 35.9362C36.277 37.4885 41.7825 44.2152 41.7825 52.2353C41.7825 60.2555 36.0148 66.7233 28.6741 68.5343V79.659C42.3069 77.848 53.0557 66.2059 53.0557 52.2353C53.0557 38.2647 42.569 26.6226 28.6741 24.8116V35.9362ZM12.1572 73.1913C12.1572 81.2114 17.6627 87.938 25.2656 89.4903V100.615C11.3707 98.804 0.883789 87.1619 0.883789 73.1913C0.883789 59.2207 11.6328 47.5786 25.2656 45.7676V56.8923C17.9249 58.7033 12.1572 65.1711 12.1572 73.1913Z" fill="url(#paint0_linear_3270_506)"/>
<defs>
<linearGradient id="paint0_linear_3270_506" x1="43.8281" y1="100.504" x2="-0.706498" y2="60.0089" gradientUnits="userSpaceOnUse">
<stop stop-color="#F7A600"/>
<stop offset="1" stop-color="#FDC500"/>
</linearGradient>
</defs>
</svg>
