<svg width="20" height="21" viewBox="0 0 20 21" fill="none" xmlns="http://www.w3.org/2000/svg">
<path d="M1.30434 1.53795C-0.262506 3.16544 0.0581738 4.89429 0.0581738 10.1465C0.0581738 14.508 -0.702817 18.8804 3.27992 19.9097C4.52359 20.2296 15.543 20.2296 16.785 19.9081C18.4432 19.4802 19.7924 18.1352 19.9769 15.7899C20.0026 15.4626 20.0026 4.83613 19.976 4.50216C19.78 2.00402 18.2422 0.564284 16.2159 0.272682C15.7515 0.205389 15.6585 0.18545 13.2758 0.181296C4.82434 0.18545 2.97171 -0.190891 1.30434 1.53795Z" fill="#151414"/>
<path d="M10.0257 2.78884C7.00917 2.78884 4.14466 2.5205 3.05052 5.32853C2.59858 6.48829 2.66421 7.99449 2.66421 10.1512C2.66421 12.0437 2.60357 13.8224 3.05052 14.973C4.14216 17.7827 7.02994 17.5135 10.0241 17.5135C12.9127 17.5135 15.891 17.8143 16.9984 14.973C17.4512 13.8016 17.3847 12.3178 17.3847 10.1512C17.3847 7.27503 17.5434 5.41825 16.1485 4.02421C14.7362 2.61189 12.8263 2.78884 10.0224 2.78884H10.0257ZM9.36608 4.11559C15.6584 4.10562 16.4592 3.40611 16.0173 13.1237C15.8603 16.5606 13.2433 16.1834 10.0265 16.1834C4.16127 16.1834 3.99262 16.0156 3.99262 10.1479C3.99262 4.21196 4.45786 4.11892 9.36608 4.11393V4.11559ZM13.9553 5.33766C13.4676 5.33766 13.0722 5.73311 13.0722 6.22078C13.0722 6.70844 13.4676 7.10389 13.9553 7.10389C14.443 7.10389 14.8384 6.70844 14.8384 6.22078C14.8384 5.73311 14.443 5.33766 13.9553 5.33766ZM10.0257 6.37032C7.93798 6.37032 6.24569 8.06344 6.24569 10.1512C6.24569 12.2389 7.93798 13.9312 10.0257 13.9312C12.1135 13.9312 13.8049 12.2389 13.8049 10.1512C13.8049 8.06344 12.1135 6.37032 10.0257 6.37032ZM10.0257 7.69707C13.2699 7.69707 13.2741 12.6053 10.0257 12.6053C6.78237 12.6053 6.77739 7.69707 10.0257 7.69707Z" fill="white"/>
</svg>
