<svg width="24" height="16" viewBox="0 0 24 16" fill="none" xmlns="http://www.w3.org/2000/svg">
<path d="M19.915 8.74987C19.527 8.22487 19.638 7.99129 19.915 7.52201C19.92 7.51665 23.123 2.77451 23.453 1.16629L23.455 1.16522C23.619 0.579152 23.455 0.148438 22.662 0.148438H20.038C19.37 0.148438 19.062 0.51808 18.897 0.931652C18.897 0.931652 17.561 4.35808 15.671 6.57915C15.061 7.22094 14.779 7.42665 14.446 7.42665C14.282 7.42665 14.027 7.22094 14.027 6.63487V1.16522C14.027 0.462366 13.84 0.148438 13.287 0.148438H9.161C8.742 0.148438 8.493 0.476295 8.493 0.781652C8.493 1.44808 9.438 1.60129 9.536 3.47629V7.54451C9.536 8.43594 9.385 8.59986 9.05 8.59986C8.158 8.59986 5.993 5.15951 4.71 1.22201C4.451 0.45808 4.198 0.149509 3.525 0.149509H0.9C0.151 0.149509 0 0.519152 0 0.932723C0 1.66344 0.892 5.29665 4.148 10.0967C6.318 13.3731 9.374 15.1484 12.154 15.1484C13.825 15.1484 14.029 14.7542 14.029 14.0759C14.029 10.9452 13.878 10.6495 14.715 10.6495C15.103 10.6495 15.771 10.8552 17.331 12.4356C19.114 14.3095 19.407 15.1484 20.405 15.1484H23.029C23.777 15.1484 24.156 14.7542 23.938 13.9763C23.439 12.3402 20.067 8.97487 19.915 8.74987Z" fill="#151414"/>
</svg>
